<svg xmlns="http://www.w3.org/2000/svg" version="1.1" xmlns:xlink="http://www.w3.org/1999/xlink" xmlns:svgjs="http://svgjs.dev/svgjs" width="1500" height="1500" viewBox="0 0 1500 1500"><rect width="1500" height="1500" fill="#000000"></rect><g transform="matrix(0.6666666666666666,0,0,0.6666666666666666,249.39393939393938,525.6020866861837)"><svg viewBox="0 0 396 178" data-background-color="#f8f8f8" preserveAspectRatio="xMidYMid meet" height="674" width="1500" xmlns="http://www.w3.org/2000/svg" xmlns:xlink="http://www.w3.org/1999/xlink"><g id="tight-bounds" transform="matrix(1,0,0,1,0.2400000000000091,-0.10646460713805084)"><svg viewBox="0 0 395.52 178.2129292142761" height="178.2129292142761" width="395.52"><g><svg viewBox="0 0 397.4975999999999 179.10399386034746" height="178.2129292142761" width="395.52"><g><rect width="397.4975999999999" height="5.485718777768954" x="0" y="98.42768152239904" fill="#ffffff" opacity="1" stroke-width="0" stroke="transparent" fill-opacity="1" class="rect-qz-0" data-fill-palette-color="secondary" rx="1%" id="qz-0" data-palette-color="#000000"></rect></g><g transform="matrix(1,0,0,1,0.9887999999999693,118.2739206608197)"><svg viewBox="0 0 395.52 60.83007319952774" height="60.83007319952774" width="395.52"><g id="textblocktransform"><svg viewBox="0 0 395.52 60.83007319952774" height="60.83007319952774" width="395.52" id="textblock"><g><svg viewBox="0 0 395.52 60.83007319952774" height="60.83007319952774" width="395.52"><g transform="matrix(1,0,0,1,0,0)"><svg width="395.52" viewBox="1.1 -37.7 310.15 47.71" height="60.83007319952774" data-palette-color="#61777f"><path d="M25.39-20.95L25.39-20.95 20.51-16.04Q20.14-17.07 19.51-17.88 18.87-18.7 18.08-19.26 17.29-19.82 16.36-20.12 15.43-20.41 14.45-20.41L14.45-20.41Q13.09-20.41 11.88-19.85 10.67-19.29 9.78-18.27 8.89-17.26 8.37-15.87 7.86-14.48 7.86-12.79L7.86-12.79Q7.86-11.43 8.37-10.23 8.89-9.03 9.78-8.13 10.67-7.23 11.88-6.71 13.09-6.2 14.45-6.2L14.45-6.2Q15.43-6.2 16.33-6.47 17.24-6.74 18.03-7.24 18.82-7.74 19.45-8.46 20.07-9.18 20.46-10.06L20.46-10.06 25.34-5.15Q24.41-3.83 23.21-2.78 22-1.73 20.59-1 19.19-0.27 17.64 0.11 16.09 0.49 14.45 0.49L14.45 0.49Q11.69 0.49 9.27-0.55 6.84-1.59 5.02-3.39 3.2-5.2 2.15-7.62 1.1-10.03 1.1-12.79L1.1-12.79Q1.1-15.8 2.15-18.41 3.2-21.02 5.02-22.96 6.84-24.9 9.27-26.03 11.69-27.15 14.45-27.15L14.45-27.15Q16.09-27.15 17.66-26.73 19.24-26.32 20.67-25.52 22.09-24.73 23.3-23.58 24.51-22.44 25.39-20.95ZM53.51-13.31L53.51-13.31Q53.51-10.38 52.46-7.85 51.41-5.32 49.61-3.48 47.8-1.64 45.37-0.57 42.94 0.49 40.16 0.49L40.16 0.49Q37.4 0.49 34.97-0.57 32.54-1.64 30.72-3.48 28.9-5.32 27.85-7.85 26.8-10.38 26.8-13.31L26.8-13.31Q26.8-16.28 27.85-18.82 28.9-21.36 30.72-23.21 32.54-25.05 34.97-26.1 37.4-27.15 40.16-27.15L40.16-27.15Q42.94-27.15 45.37-26.16 47.8-25.17 49.61-23.35 51.41-21.53 52.46-18.98 53.51-16.43 53.51-13.31ZM46.8-13.31L46.8-13.31Q46.8-14.92 46.27-16.22 45.75-17.53 44.85-18.47 43.94-19.41 42.73-19.91 41.53-20.41 40.16-20.41L40.16-20.41Q38.79-20.41 37.58-19.91 36.37-19.41 35.48-18.47 34.59-17.53 34.08-16.22 33.57-14.92 33.57-13.31L33.57-13.31Q33.57-11.79 34.08-10.5 34.59-9.2 35.48-8.25 36.37-7.3 37.58-6.75 38.79-6.2 40.16-6.2L40.16-6.2Q41.53-6.2 42.73-6.71 43.94-7.23 44.85-8.15 45.75-9.08 46.27-10.4 46.8-11.72 46.8-13.31ZM78.61 0L76.41-3.05Q75.61-2.32 74.69-1.67 73.77-1.03 72.77-0.55 71.77-0.07 70.71 0.21 69.65 0.49 68.55 0.49L68.55 0.49Q66.13 0.49 64.01-0.37 61.88-1.22 60.29-2.8 58.69-4.37 57.77-6.63 56.86-8.89 56.86-11.69L56.86-11.69 56.86-26.15 63.5-26.15 63.5-11.69Q63.5-10.38 63.9-9.34 64.3-8.3 64.99-7.59 65.67-6.88 66.58-6.52 67.5-6.15 68.55-6.15L68.55-6.15Q69.58-6.15 70.49-6.63 71.41-7.1 72.09-7.89 72.77-8.67 73.16-9.66 73.55-10.64 73.55-11.69L73.55-11.69 73.55-26.15 80.22-26.15 80.22 0 78.61 0ZM91.96-14.4L91.96 0 85.3 0 85.3-26.15 86.91-26.15 89.1-23.05Q90.72-24.51 92.77-25.31 94.82-26.1 97.01-26.1L97.01-26.1 102.9-26.1 102.9-19.46 97.01-19.46Q95.96-19.46 95.04-19.07 94.11-18.68 93.43-17.99 92.74-17.31 92.35-16.38 91.96-15.45 91.96-14.4L91.96-14.4ZM124.16 0L119.11 0Q116.69 0 114.57-0.92 112.44-1.83 110.84-3.43 109.24-5.03 108.33-7.15 107.41-9.28 107.41-11.69L107.41-11.69 107.41-19.46 104.16-19.46 104.16-26.1 107.41-26.1 107.41-36.55 114.05-36.55 114.05-26.1 124.16-26.1 124.16-19.46 114.05-19.46 114.05-11.69Q114.05-10.64 114.44-9.73 114.83-8.81 115.52-8.13 116.2-7.45 117.13-7.04 118.06-6.64 119.11-6.64L119.11-6.64 124.16-6.64 124.16 0ZM156.6-10.5L156.6-10.5Q156.6-8.33 155.77-6.42 154.94-4.52 153.52-3.09 152.09-1.66 150.18-0.83 148.28 0 146.11 0L146.11 0 128.6 0 128.6-35.01 146.11-35.01Q148.28-35.01 150.18-34.18 152.09-33.35 153.52-31.92 154.94-30.49 155.77-28.59 156.6-26.68 156.6-24.51L156.6-24.51Q156.6-23.54 156.34-22.51 156.07-21.48 155.58-20.53 155.09-19.58 154.41-18.8 153.72-18.02 152.89-17.5L152.89-17.5Q153.75-17.04 154.43-16.25 155.11-15.45 155.6-14.5 156.09-13.55 156.35-12.51 156.6-11.47 156.6-10.5ZM135.61-13.99L135.61-7.01 146.11-7.01Q146.84-7.01 147.47-7.28 148.11-7.54 148.58-8.02 149.06-8.5 149.33-9.13 149.6-9.77 149.6-10.5L149.6-10.5Q149.6-11.23 149.33-11.87 149.06-12.5 148.58-12.98 148.11-13.45 147.47-13.72 146.84-13.99 146.11-13.99L146.11-13.99 135.61-13.99ZM135.61-28L135.61-21 146.11-21Q146.84-21 147.47-21.26 148.11-21.53 148.58-22.01 149.06-22.49 149.33-23.13 149.6-23.78 149.6-24.51L149.6-24.51Q149.6-25.24 149.33-25.88 149.06-26.51 148.58-26.99 148.11-27.47 147.47-27.73 146.84-28 146.11-28L146.11-28 135.61-28ZM186.46-13.31L186.46-13.31Q186.46-10.38 185.41-7.85 184.36-5.32 182.55-3.48 180.75-1.64 178.32-0.57 175.89 0.49 173.11 0.49L173.11 0.49Q170.35 0.49 167.92-0.57 165.49-1.64 163.67-3.48 161.85-5.32 160.8-7.85 159.75-10.38 159.75-13.31L159.75-13.31Q159.75-16.28 160.8-18.82 161.85-21.36 163.67-23.21 165.49-25.05 167.92-26.1 170.35-27.15 173.11-27.15L173.11-27.15Q175.89-27.15 178.32-26.16 180.75-25.17 182.55-23.35 184.36-21.53 185.41-18.98 186.46-16.43 186.46-13.31ZM179.75-13.31L179.75-13.31Q179.75-14.92 179.22-16.22 178.7-17.53 177.79-18.47 176.89-19.41 175.68-19.91 174.47-20.41 173.11-20.41L173.11-20.41Q171.74-20.41 170.53-19.91 169.32-19.41 168.43-18.47 167.54-17.53 167.03-16.22 166.51-14.92 166.51-13.31L166.51-13.31Q166.51-11.79 167.03-10.5 167.54-9.2 168.43-8.25 169.32-7.3 170.53-6.75 171.74-6.2 173.11-6.2L173.11-6.2Q174.47-6.2 175.68-6.71 176.89-7.23 177.79-8.15 178.7-9.08 179.22-10.4 179.75-11.72 179.75-13.31ZM215.41-13.31L215.41-13.31Q215.41-10.38 214.36-7.85 213.31-5.32 211.51-3.48 209.7-1.64 207.27-0.57 204.84 0.49 202.06 0.49L202.06 0.49Q199.3 0.49 196.87-0.57 194.44-1.64 192.62-3.48 190.8-5.32 189.75-7.85 188.7-10.38 188.7-13.31L188.7-13.31Q188.7-16.28 189.75-18.82 190.8-21.36 192.62-23.21 194.44-25.05 196.87-26.1 199.3-27.15 202.06-27.15L202.06-27.15Q204.84-27.15 207.27-26.16 209.7-25.17 211.51-23.35 213.31-21.53 214.36-18.98 215.41-16.43 215.41-13.31ZM208.7-13.31L208.7-13.31Q208.7-14.92 208.17-16.22 207.65-17.53 206.75-18.47 205.84-19.41 204.63-19.91 203.42-20.41 202.06-20.41L202.06-20.41Q200.69-20.41 199.48-19.91 198.27-19.41 197.38-18.47 196.49-17.53 195.98-16.22 195.47-14.92 195.47-13.31L195.47-13.31Q195.47-11.79 195.98-10.5 196.49-9.2 197.38-8.25 198.27-7.3 199.48-6.75 200.69-6.2 202.06-6.2L202.06-6.2Q203.42-6.2 204.63-6.71 205.84-7.23 206.75-8.15 207.65-9.08 208.17-10.4 208.7-11.72 208.7-13.31ZM225.81-3.34L225.81 0 219.1 0 219.1-36.55 225.81-36.55 225.81-13.5 235.75-26.1 243.41-26.1 234.75-15.21 243.41 0 235.75 0 230.45-9.5 225.81-3.34ZM253.91-33.25L253.91-33.25Q253.91-32.32 253.55-31.52 253.2-30.71 252.59-30.11 251.98-29.52 251.16-29.16 250.34-28.81 249.42-28.81L249.42-28.81Q248.49-28.81 247.67-29.16 246.85-29.52 246.25-30.11 245.66-30.71 245.3-31.52 244.95-32.32 244.95-33.25L244.95-33.25Q244.95-34.16 245.3-34.97 245.66-35.79 246.25-36.39 246.85-36.99 247.67-37.34 248.49-37.7 249.42-37.7L249.42-37.7Q250.34-37.7 251.16-37.34 251.98-36.99 252.59-36.39 253.2-35.79 253.55-34.97 253.91-34.16 253.91-33.25ZM252.76-26.15L252.76 0 246.05 0 246.05-26.15 252.76-26.15ZM264.5-14.94L264.5 0 257.84 0 257.84-26.15 259.45-26.15 261.64-23.61Q263.26-25.07 265.29-25.87 267.33-26.66 269.56-26.66L269.56-26.66Q271.95-26.66 274.07-25.74 276.2-24.83 277.78-23.23 279.37-21.63 280.29-19.49 281.2-17.36 281.2-14.94L281.2-14.94 281.2 0 274.54 0 274.54-14.94Q274.54-15.97 274.14-16.88 273.75-17.8 273.07-18.48 272.39-19.17 271.48-19.56 270.58-19.95 269.56-19.95L269.56-19.95Q268.51-19.95 267.58-19.56 266.65-19.17 265.97-18.48 265.28-17.8 264.89-16.88 264.5-15.97 264.5-14.94L264.5-14.94ZM304.54-13.31L304.54-13.31Q304.54-14.67 304.01-15.95 303.49-17.24 302.58-18.23 301.68-19.21 300.47-19.81 299.26-20.41 297.9-20.41L297.9-20.41Q296.53-20.41 295.32-19.95 294.11-19.48 293.22-18.58 292.33-17.68 291.82-16.35 291.31-15.01 291.31-13.31L291.31-13.31Q291.31-11.67 291.82-10.36 292.33-9.06 293.22-8.13 294.11-7.2 295.32-6.7 296.53-6.2 297.9-6.2L297.9-6.2Q299.26-6.2 300.47-6.8 301.68-7.4 302.58-8.39 303.49-9.38 304.01-10.66 304.54-11.94 304.54-13.31ZM311.25-26.1L311.25-3.3Q311.25-0.54 310.2 1.88 309.15 4.3 307.33 6.1 305.51 7.91 303.09 8.96 300.66 10.01 297.9 10.01L297.9 10.01 294.55 9.96 294.55 3.3 297.85 3.34Q299.41 3.34 300.51 2.94 301.61 2.54 302.37 1.84 303.12 1.15 303.57 0.24 304.03-0.66 304.29-1.66L304.29-1.66Q303.9-1.03 303.17-0.62 302.44-0.22 301.55 0.04 300.66 0.29 299.69 0.39 298.73 0.49 297.9 0.49L297.9 0.49Q295.14 0.49 292.71-0.46 290.28-1.42 288.46-3.19 286.64-4.96 285.59-7.52 284.54-10.08 284.54-13.31L284.54-13.31Q284.54-16.26 285.59-18.8 286.64-21.34 288.46-23.19 290.28-25.05 292.71-26.1 295.14-27.15 297.9-27.15L297.9-27.15Q299.17-27.15 300.41-26.83 301.66-26.51 302.83-25.95 304-25.39 305.06-24.63 306.12-23.88 307.05-23L307.05-23 309.64-26.1 311.25-26.1Z" opacity="1" transform="matrix(1,0,0,1,0,0)" fill="#ffffff" class="wordmark-text-0" data-fill-palette-color="primary" id="text-0"></path></svg></g></svg></g></svg></g></svg></g><g transform="matrix(1,0,0,1,144.7229659214253,0)"><svg viewBox="0 0 108.05166815714932 84.06716116174734" height="84.06716116174734" width="108.05166815714932"><g><svg xmlns="http://www.w3.org/2000/svg" xmlns:xlink="http://www.w3.org/1999/xlink" version="1.1" x="8" y="0" viewBox="0.7999999999999994 2.851471862576143 46.28600951220124 42.27118855199346" enable-background="new 0 0 48 48" xml:space="preserve" height="84.06716116174734" width="92.05166815714932" class="icon-icon-0" data-fill-palette-color="accent" id="icon-0"><g fill="#c8c8c8" data-fill-palette-color="accent"><g fill="#c8c8c8" data-fill-palette-color="accent"><g fill="#c8c8c8" data-fill-palette-color="accent"><path fill="#ffffff" d="M26.5 15c0 2-1.6 3-3.4 3-2.3 0-3-1.5-3.5-3.4-0.7-2.7 2.7-3.8 4.6-3.4 2.2 0.5 2 2.1 2.3 3.9 0.1 0.8 1.3 0.5 1.2-0.3-0.2-1.4 0-2.5-0.9-3.6-0.8-0.9-2.3-1.2-3.4-1.4-2.5-0.3-5.1 1.9-5.1 4.4 0 1.2 0.6 2.5 1.2 3.5 0.7 1.1 1.9 1.4 3.1 1.5 2.7 0.3 5.2-1.4 5.2-4.3C27.7 14.2 26.5 14.2 26.5 15L26.5 15z" data-fill-palette-color="accent"></path></g></g><g fill="#c8c8c8" data-fill-palette-color="accent"><g fill="#c8c8c8" data-fill-palette-color="accent"><path fill="#ffffff" d="M19.3 3.1c-0.8 1-2.6 4-0.6 4.8 0.7 0.3 1.7 0.3 2.4 0.2 0.5-0.1 1-0.5 1.5-0.7 0.6-0.3 1.3-0.7 1.9-1 0.7-0.4 0.1-1.5-0.6-1.1-0.9 0.5-2.5 1.8-3.6 1.6-0.2 0-0.3 0-0.5-0.1C19 6.7 19.1 6 19.4 5.4c0.3-0.6 0.6-1.2 1-1.7C20.9 3.1 19.8 2.5 19.3 3.1L19.3 3.1z" data-fill-palette-color="accent"></path></g></g><g fill="#c8c8c8" data-fill-palette-color="accent"><g fill="#c8c8c8" data-fill-palette-color="accent"><path fill="#ffffff" d="M15.1 20.3c2 3 6.2 5.4 9.8 3.6 7.3-3.6 9.5-13.5 18-15.2 0.8-0.2 0.5-1.4-0.3-1.2-3.8 0.8-6.2 3-8.7 5.8-4.2 4.7-11.5 15.7-17.7 6.4C15.7 19.1 14.6 19.7 15.1 20.3L15.1 20.3z" data-fill-palette-color="accent"></path></g></g><g fill="#c8c8c8" data-fill-palette-color="accent"><g fill="#c8c8c8" data-fill-palette-color="accent"><path fill="#ffffff" d="M43 8.7c-0.1 0 4.1 0.9 2.6 2.3-0.6 0.6-1.4 1-2.1 1.4-1.2 0.7-2.5 1.3-3.6 2.1-2.4 1.6-4.3 3.8-5.5 6.3-0.3 0.7 0.7 1.4 1.1 0.6 1.3-2.7 3.2-4.7 5.7-6.3 1.6-1 3.3-1.7 4.8-2.9 2.8-2.2-0.4-4.8-3-4.8C42.2 7.5 42.2 8.7 43 8.7L43 8.7z" data-fill-palette-color="accent"></path></g></g><g fill="#c8c8c8" data-fill-palette-color="accent"><g fill="#c8c8c8" data-fill-palette-color="accent"><path fill="#ffffff" d="M34.2 21.7c1.4 2.9 4 5 5.6 7.9 2.2 4 3.1 10.1-0.1 13.8-0.5 0.6 0.4 1.5 0.9 0.9 2.5-2.9 2.6-6.4 2.1-10-0.8-5.6-5-8.5-7.4-13.2C34.9 20.3 33.8 21 34.2 21.7L34.2 21.7z" data-fill-palette-color="accent"></path></g></g><g fill="#c8c8c8" data-fill-palette-color="accent"><g fill="#c8c8c8" data-fill-palette-color="accent"><path fill="#ffffff" d="M39.7 43.5C35.6 46 36.6 41 36.9 40c0.2-0.7 0.4-1.5 0.5-2.2 0.3-1.6 0.3-3.3 0.2-5-0.1-0.8-1.3-0.8-1.3 0 0.2 2.1 0 4.1-0.5 6.2-0.3 1.1-0.9 2.6-0.5 3.7 0.8 2.3 2.9 3.1 4.9 1.8C41 44.1 40.4 43 39.7 43.5L39.7 43.5z" data-fill-palette-color="accent"></path></g></g><g fill="#c8c8c8" data-fill-palette-color="accent"><g fill="#c8c8c8" data-fill-palette-color="accent"><path fill="#ffffff" d="M36.9 31.9c-4.7 0.2-8.3 2.5-10.7 6.3-0.7 1.2-1.5 2.4-2.2 3.5-2.1 0.5-2.7-0.3-1.6-2.2 0.4-1 0.8-1.9 1.3-2.8 1.5-2.8 3.4-5.4 6-7.4 0.6-0.5-0.3-1.4-0.9-0.9-2.7 2.1-4.5 4.7-6.2 7.6-0.8 1.4-3.3 5.8-1.4 7.4 1.6 1.3 2.8 0.4 3.8-1.1 1.2-1.7 2.2-3.5 3.3-5.2 1.7-2.6 5.6-3.9 8.5-4.1C37.7 33.1 37.7 31.8 36.9 31.9L36.9 31.9z" data-fill-palette-color="accent"></path></g></g><g fill="#c8c8c8" data-fill-palette-color="accent"><g fill="#c8c8c8" data-fill-palette-color="accent"><path fill="#ffffff" d="M30.1 28.4c-0.5-3.3-4.4-0.6-6-0.1-3.1 0.8-6.3-0.9-8.7-2.5-1.4-1-2.9-2.2-3.4-3.9-0.8-2.4 1.5-4.3 2.9-1.7 0.4 0.7 1.5 0.1 1.1-0.6-0.9-1.6-2.6-3.2-4.5-2.4-1.7 0.7-0.9 4.5-0.5 5.7 0.9 2.6 4.5 4.8 6.8 5.8 1.8 0.8 3.5 1.1 5.5 1.1 0.7 0 5.6-1.6 5.7-0.9C29 29.5 30.2 29.2 30.1 28.4L30.1 28.4z" data-fill-palette-color="accent"></path></g></g><g fill="#c8c8c8" data-fill-palette-color="accent"><g fill="#c8c8c8" data-fill-palette-color="accent"><path fill="#ffffff" d="M11.9 24.1c-0.7 0.2-1.2 0.9-1.6 1.4-0.7 0.8-1.4 1.6-2.1 2.3-0.5 0.6 0.3 1.5 0.9 0.9 0.5-0.6 1-1.1 1.5-1.7 0.3-0.3 0.5-0.6 0.8-0.9 0.2-0.3 0.5-0.8 0.9-0.9C13 25.1 12.7 23.9 11.9 24.1L11.9 24.1z" data-fill-palette-color="accent"></path></g></g><g fill="#c8c8c8" data-fill-palette-color="accent"><g fill="#c8c8c8" data-fill-palette-color="accent"><path fill="#ffffff" d="M8 28.9c2.3 3.1 0.4 8.4-3.7 8.8C1 38.1 2 33.5 3.1 32.1c0.9-1.2 3.1-4.2 4.9-3.3 0.7 0.3 1.4-0.7 0.6-1.1-2.5-1.2-4.9 1.5-6.2 3.3-1.1 1.4-1.6 2.4-1.6 4.2 0 1.1 0.3 2.6 1.4 3.2 2.6 1.6 5.1-0.2 6.8-2.3 1.9-2.3 2-5.4 0.2-7.8C8.6 27.6 7.5 28.2 8 28.9L8 28.9z" data-fill-palette-color="accent"></path></g></g></g></svg></g></svg></g><g><rect width="68.18984592142533" height="5.485718777768954" y="77.58144238397838" x="252.77463407857462" fill="#ffffff" data-fill-palette-color="secondary"></rect><rect width="68.18984592142533" height="5.485718777768954" y="77.58144238397838" x="76.53311999999997" fill="#ffffff" data-fill-palette-color="secondary"></rect></g></svg></g><defs></defs></svg><rect width="395.52" height="178.2129292142761" fill="none" stroke="none" visibility="hidden"></rect></g></svg></g></svg>